HIERARCHY
ROOT Hips
{
	OFFSET 0.000003 96.368652 -0.035689
	CHANNELS 6 Xposition Yposition Zposition Xrotation Yrotation Zrotation
	JOINT Spine
	{
		OFFSET 0.000010 9.226303 1.577100
		CHANNELS 6 Xposition Yposition Zposition Xrotation Yrotation Zrotation
		JOINT Spine1
		{
			OFFSET 0.000000 16.253998 -0.165600
			CHANNELS 6 Xposition Yposition Zposition Xrotation Yrotation Zrotation
			JOINT Spine2
			{
				OFFSET -0.000000 13.639587 -1.292299
				CHANNELS 6 Xposition Yposition Zposition Xrotation Yrotation Zrotation
				JOINT Neck
				{
					OFFSET 0.000000 13.877411 -4.354199
					CHANNELS 6 Xposition Yposition Zposition Xrotation Yrotation Zrotation
					JOINT Neck1
					{
						OFFSET 0.000000 4.339996 0.926899
						CHANNELS 6 Xposition Yposition Zposition Xrotation Yrotation Zrotation
						JOINT Head
						{
							OFFSET 0.000000 4.026611 0.858500
							CHANNELS 6 Xposition Yposition Zposition Xrotation Yrotation Zrotation
							JOINT HeadTop_End
							{
								OFFSET 0.000000 21.748810 0.000000
								CHANNELS 6 Xposition Yposition Zposition Xrotation Yrotation Zrotation
								End Site
								{
									OFFSET 0.000000 11.825378 0.000000
								}
							}
							JOINT L_Eye
							{
								OFFSET 3.005700 7.261795 7.955601
								CHANNELS 6 Xposition Yposition Zposition Xrotation Yrotation Zrotation
								End Site
								{
									OFFSET 0.000000 11.825378 0.000000
								}
							}
							JOINT R_Eye
							{
								OFFSET -3.005700 7.261795 7.955601
								CHANNELS 6 Xposition Yposition Zposition Xrotation Yrotation Zrotation
								End Site
								{
									OFFSET 0.000000 11.825378 0.000000
								}
							}
							JOINT Jaw
							{
								OFFSET 0.000000 2.030289 2.456200
								CHANNELS 6 Xposition Yposition Zposition Xrotation Yrotation Zrotation
								End Site
								{
									OFFSET 0.000000 11.825378 0.000000
								}
							}
						}
					}
				}
				JOINT L_Shoulder
				{
					OFFSET 6.144200 10.187012 -3.793198
					CHANNELS 6 Xposition Yposition Zposition Xrotation Yrotation Zrotation
					JOINT L_Arm
					{
						OFFSET 12.319103 -1.112991 -1.793500
						CHANNELS 3 Xrotation Yrotation Zrotation
						JOINT L_ForeArm
						{
							OFFSET 27.687006 -0.000015 -0.000000
							CHANNELS 3 Xrotation Yrotation Zrotation
							JOINT L_Hand
							{
								OFFSET 27.873787 0.000031 -0.000000
								CHANNELS 3 Xrotation Yrotation Zrotation
								JOINT L_HandThumb1
								{
									OFFSET 2.421021 -1.395554 2.392360
									CHANNELS 6 Xposition Yposition Zposition Xrotation Yrotation Zrotation
									JOINT L_HandThumb2
									{
										OFFSET 3.496521 -2.018692 2.018717
										CHANNELS 6 Xposition Yposition Zposition Xrotation Yrotation Zrotation
										JOINT L_HandThumb3
										{
											OFFSET 4.011398 -2.315994 2.315975
											CHANNELS 6 Xposition Yposition Zposition Xrotation Yrotation Zrotation
											JOINT L_HandThumb4
											{
												OFFSET 2.095787 -1.210007 1.209984
												CHANNELS 6 Xposition Yposition Zposition Xrotation Yrotation Zrotation
												End Site
												{
													OFFSET 1.877617 -1.197205 1.536803
												}
											}
										}
									}
								}
								JOINT L_HandIndex1
								{
									OFFSET 10.514771 -0.231369 2.264849
									CHANNELS 6 Xposition Yposition Zposition Xrotation Yrotation Zrotation
									JOINT L_HandIndex2
									{
										OFFSET 5.549301 0.000000 0.000000
										CHANNELS 3 Xrotation Yrotation Zrotation
										JOINT L_HandIndex3
										{
											OFFSET 3.391098 0.000000 0.000001
											CHANNELS 3 Xrotation Yrotation Zrotation
											JOINT L_HandIndex4
											{
												OFFSET 2.334351 0.000000 0.000011
												CHANNELS 6 Xposition Yposition Zposition Xrotation Yrotation Zrotation
												End Site
												{
													OFFSET 2.334351 0.000000 0.000101
												}
											}
										}
									}
								}
								JOINT L_HandMiddle1
								{
									OFFSET 10.490761 -0.000015 0.000002
									CHANNELS 6 Xposition Yposition Zposition Xrotation Yrotation Zrotation
									JOINT L_HandMiddle2
									{
										OFFSET 5.792099 0.000000 0.000000
										CHANNELS 3 Xrotation Yrotation Zrotation
										JOINT L_HandMiddle3
										{
											OFFSET 3.713196 0.000000 0.000000
											CHANNELS 3 Xrotation Yrotation Zrotation
											JOINT L_HandMiddle4
											{
												OFFSET 2.752045 -0.000031 0.000022
												CHANNELS 6 Xposition Yposition Zposition Xrotation Yrotation Zrotation
												End Site
												{
													OFFSET 2.752045 0.000031 -0.003599
												}
											}
										}
									}
								}
								JOINT L_HandRing1
								{
									OFFSET 10.240753 -0.046051 -2.314147
									CHANNELS 6 Xposition Yposition Zposition Xrotation Yrotation Zrotation
									JOINT L_HandRing2
									{
										OFFSET 5.445206 -0.000015 0.000676
										CHANNELS 3 Xrotation Yrotation Zrotation
										JOINT L_HandRing3
										{
											OFFSET 3.713196 0.000015 -0.000674
											CHANNELS 3 Xrotation Yrotation Zrotation
											JOINT L_HandRing4
											{
												OFFSET 2.280716 0.000000 -0.000046
												CHANNELS 3 Xrotation Yrotation Zrotation
												End Site
												{
													OFFSET 2.280716 -0.000061 0.003501
												}
											}
										}
									}
								}
								JOINT L_HandPinky1
								{
									OFFSET 9.820259 -0.209747 -4.418469
									CHANNELS 6 Xposition Yposition Zposition Xrotation Yrotation Zrotation
									JOINT L_HandPinky2
									{
										OFFSET 3.676300 0.000000 0.000000
										CHANNELS 3 Xrotation Yrotation Zrotation
										JOINT L_HandPinky3
										{
											OFFSET 2.811295 0.000000 0.000001
											CHANNELS 3 Xrotation Yrotation Zrotation
											JOINT L_HandPinky4
											{
												OFFSET 1.659546 0.000000 0.000000
												CHANNELS 3 Xrotation Yrotation Zrotation
												End Site
												{
													OFFSET 1.659546 0.000015 -0.001891
												}
											}
										}
									}
								}
							}
						}
					}
				}
				JOINT R_Shoulder
				{
					OFFSET -6.140200 10.187012 -3.793198
					CHANNELS 6 Xposition Yposition Zposition Xrotation Yrotation Zrotation
					JOINT R_Arm
					{
						OFFSET -12.323095 -1.113007 -1.793499
						CHANNELS 3 Xrotation Yrotation Zrotation
						JOINT R_ForeArm
						{
							OFFSET -27.687002 0.000015 -0.000002
							CHANNELS 3 Xrotation Yrotation Zrotation
							JOINT R_Hand
							{
								OFFSET -27.873795 -0.000015 0.000000
								CHANNELS 3 Xrotation Yrotation Zrotation
								JOINT R_HandPinky1
								{
									OFFSET -9.791023 -0.212921 -4.378341
									CHANNELS 6 Xposition Yposition Zposition Xrotation Yrotation Zrotation
									JOINT R_HandPinky2
									{
										OFFSET -3.652802 0.000000 0.000000
										CHANNELS 3 Xrotation Yrotation Zrotation
										JOINT R_HandPinky3
										{
											OFFSET -2.781998 0.000000 0.000000
											CHANNELS 3 Xrotation Yrotation Zrotation
											JOINT R_HandPinky4
											{
												OFFSET -1.612122 0.000198 0.000004
												CHANNELS 3 Xrotation Yrotation Zrotation
												End Site
												{
													OFFSET -1.612106 0.000320 -0.007100
												}
											}
										}
									}
								}
								JOINT R_HandRing1
								{
									OFFSET -10.391914 0.105164 -2.349891
									CHANNELS 6 Xposition Yposition Zposition Xrotation Yrotation Zrotation
									JOINT R_HandRing2
									{
										OFFSET -5.401306 0.000000 0.000000
										CHANNELS 3 Xrotation Yrotation Zrotation
										JOINT R_HandRing3
										{
											OFFSET -3.391602 0.000000 0.000000
											CHANNELS 3 Xrotation Yrotation Zrotation
											JOINT R_HandRing4
											{
												OFFSET -2.353172 0.000305 -0.000032
												CHANNELS 3 Xrotation Yrotation Zrotation
												End Site
												{
													OFFSET -2.353180 0.000275 0.001400
												}
											}
										}
									}
								}
								JOINT R_HandMiddle1
								{
									OFFSET -10.779236 0.000000 0.000001
									CHANNELS 6 Xposition Yposition Zposition Xrotation Yrotation Zrotation
									JOINT R_HandMiddle2
									{
										OFFSET -5.616806 0.000000 0.000000
										CHANNELS 3 Xrotation Yrotation Zrotation
										JOINT R_HandMiddle3
										{
											OFFSET -3.736397 0.000000 0.000000
											CHANNELS 3 Xrotation Yrotation Zrotation
											JOINT R_HandMiddle4
											{
												OFFSET -2.691521 0.000336 -0.000028
												CHANNELS 3 Xrotation Yrotation Zrotation
												End Site
												{
													OFFSET -2.691513 0.000214 0.009200
												}
											}
										}
									}
								}
								JOINT R_HandIndex1
								{
									OFFSET -10.577324 -0.175369 2.287349
									CHANNELS 6 Xposition Yposition Zposition Xrotation Yrotation Zrotation
									JOINT R_HandIndex2
									{
										OFFSET -5.376801 0.000000 0.000001
										CHANNELS 3 Xrotation Yrotation Zrotation
										JOINT R_HandIndex3
										{
											OFFSET -3.385498 0.000000 0.000001
											CHANNELS 3 Xrotation Yrotation Zrotation
											JOINT R_HandIndex4
											{
												OFFSET -2.363556 0.000305 0.000042
												CHANNELS 3 Xrotation Yrotation Zrotation
												End Site
												{
													OFFSET -2.363548 0.000381 -0.006501
												}
											}
										}
									}
								}
								JOINT R_HandThumb1
								{
									OFFSET -2.570442 -1.245102 2.319054
									CHANNELS 6 Xposition Yposition Zposition Xrotation Yrotation Zrotation
									JOINT R_HandThumb2
									{
										OFFSET -3.518791 -2.031555 2.031563
										CHANNELS 6 Xposition Yposition Zposition Xrotation Yrotation Zrotation
										JOINT R_HandThumb3
										{
											OFFSET -3.945267 -2.277756 2.277756
											CHANNELS 6 Xposition Yposition Zposition Xrotation Yrotation Zrotation
											JOINT R_HandThumb4
											{
												OFFSET -2.055496 -1.186386 1.186664
												CHANNELS 3 Xrotation Yrotation Zrotation
												End Site
												{
													OFFSET -1.840202 -1.174805 1.508071
												}
											}
										}
									}
								}
							}
						}
					}
				}
			}
		}
	}
	JOINT L_UpLeg
	{
		OFFSET 9.633796 -3.273308 -0.000000
		CHANNELS 6 Xposition Yposition Zposition Xrotation Yrotation Zrotation
		JOINT L_Leg
		{
			OFFSET -0.006490 -41.762173 -0.553830
			CHANNELS 3 Xrotation Yrotation Zrotation
			JOINT L_Foot
			{
				OFFSET 0.006493 -39.146984 -2.021915
				CHANNELS 3 Xrotation Yrotation Zrotation
				JOINT L_ToeBase
				{
					OFFSET -0.183300 -12.185708 8.282301
					CHANNELS 6 Xposition Yposition Zposition Xrotation Yrotation Zrotation
					JOINT L_Toe_End
					{
						OFFSET -0.094684 -0.116787 6.663326
						CHANNELS 3 Xrotation Yrotation Zrotation
						End Site
						{
							OFFSET -0.094684 -0.116787 6.663328
						}
					}
				}
			}
		}
	}
	JOINT R_UpLeg
	{
		OFFSET -9.633803 -3.273293 0.000000
		CHANNELS 6 Xposition Yposition Zposition Xrotation Yrotation Zrotation
		JOINT R_Leg
		{
			OFFSET -0.006491 -41.762146 -0.555884
			CHANNELS 3 Xrotation Yrotation Zrotation
			JOINT R_Foot
			{
				OFFSET 0.006493 -39.147087 -2.019920
				CHANNELS 3 Xrotation Yrotation Zrotation
				JOINT R_ToeBase
				{
					OFFSET -0.183299 -12.185700 8.282300
					CHANNELS 6 Xposition Yposition Zposition Xrotation Yrotation Zrotation
					JOINT R_Toe_End
					{
						OFFSET 0.094687 -0.116863 6.675869
						CHANNELS 3 Xrotation Yrotation Zrotation
						End Site
						{
							OFFSET 0.094687 -0.116863 6.675869
						}
					}
				}
			}
		}
	}
}
MOTION
Frames: 4
Frame Time: 0.033333
4.541110 83.949478 -6.282486 -2.424196 -39.735367 -5.028342 0.000009 9.226307 1.577101 15.941784 2.496229 1.313092 -0.000000 16.254005 -0.165600 13.191555 12.109031 1.446495 -0.000001 13.639591 -1.292299 11.535956 13.814913 1.901571 -0.000002 13.877392 -4.354196 -6.400027 -5.009630 5.125313 0.000001 4.339996 0.926910 -0.000003 0.000001 -0.000002 -0.000001 4.026618 0.858503 -10.572482 8.725877 -5.272476 -0.000002 21.748825 0.000004 -0.000000 0.000000 0.000001 3.005702 7.261826 7.955601 -0.000000 0.000000 0.000001 -3.005702 7.261810 7.955602 -0.000000 0.000000 0.000001 0.000002 2.030304 2.456199 -0.000000 0.000000 0.000001 6.144203 10.187013 -3.793208 -2.464345 -25.098703 -4.064465 -65.778895 -20.911555 -63.977009 -98.668038 28.290160 -63.552137 -22.756165 5.588216 2.723919 2.421021 -1.395568 2.392366 0.699361 9.503602 -2.418262 3.496529 -2.018692 2.018722 5.975134 12.647549 1.348407 4.011411 -2.316019 2.315964 -23.873490 -17.664310 1.604758 2.095778 -1.210010 1.209996 0.000005 0.000004 0.000007 10.514778 -0.231371 2.264853 9.479725 -1.289704 -20.785570 0.709532 2.796677 -28.467086 0.714114 2.805000 -28.559637 2.334337 0.000014 0.000009 0.000000 0.000000 -0.000001 10.490764 -0.000039 0.000000 10.058189 -1.800543 -20.644774 1.774409 4.200741 -45.781918 1.632377 4.058121 -43.809219 2.752052 -0.000044 0.000020 -0.000001 0.000001 0.000000 10.240765 -0.046056 -2.314149 1.256481 -0.066822 -17.945535 3.744582 5.453250 -68.964249 5.298043 9.647978 -33.747534 -0.000001 0.000001 0.000004 9.820261 -0.209742 -4.418465 -7.938306 1.609039 -6.495734 2.210702 4.583938 -51.475256 0.883916 3.096338 -31.858154 -0.000001 0.000003 0.000002 -6.140202 10.186985 -3.793195 -1.330082 -2.167277 -0.334517 -19.857566 30.485583 55.845081 32.526583 127.890702 -34.573369 3.597149 -5.320347 -10.815753 -9.791016 -0.212922 -4.378334 -17.635784 -10.496910 3.325329 4.994382 -4.645615 94.147806 3.647935 -4.547239 77.470560 0.000002 0.000000 -0.000000 -10.391910 0.105157 -2.349869 -12.155670 -12.624055 9.228123 6.567907 -4.249117 114.232380 3.754864 -4.569783 78.826954 -0.000000 0.000001 -0.000004 -10.779236 0.000003 0.000008 3.764203 -12.080480 1.143758 5.715014 -4.536479 103.133404 3.160494 -4.411050 71.242083 0.000000 -0.000001 -0.000000 -10.577328 -0.175384 2.287359 0.357849 -5.832777 5.175934 0.094431 -0.933737 11.539627 0.778310 -2.579683 33.567293 0.000001 -0.000001 0.000003 -2.570445 -1.245124 2.319069 13.942871 -4.273613 -5.299897 -3.518806 -2.031563 2.031550 7.113417 -20.767547 -2.619595 -3.945272 -2.277732 2.277757 -3.460564 -24.899429 -18.653907 0.000000 0.000001 -0.000000 9.633793 -3.273308 -0.000005 -33.655269 13.822755 19.033261 63.815789 -1.186990 -11.103688 -30.302821 -2.834042 9.025904 -0.183300 -12.185706 8.282299 -2.263570 -0.036236 -2.032520 0.000000 0.000002 0.000000 -9.633806 -3.273293 0.000001 -32.905522 -3.354823 -3.685354 78.389521 0.521892 -8.654868 -21.633069 -0.309159 -12.544929 -0.183300 -12.185701 8.282299 0.897820 4.490604 2.434488 -0.000000 0.000002 0.000001 
4.685369 84.651138 -7.732908 -2.678175 -37.687399 -5.024709 0.000010 9.226310 1.577099 17.559675 1.668128 1.730273 0.000001 16.254004 -0.165599 12.435619 12.033982 1.104076 -0.000002 13.639566 -1.292292 10.907968 13.641295 1.407138 0.000000 13.877389 -4.354199 -6.408138 -5.295779 5.111726 -0.000005 4.339981 0.926916 -0.000002 0.000000 0.000002 0.000004 4.026605 0.858499 -10.749704 7.965492 -4.570673 0.000000 21.748810 -0.000004 -0.000000 0.000000 -0.000000 3.005702 7.261810 7.955595 -0.000000 0.000000 -0.000000 -3.005696 7.261810 7.955599 -0.000000 0.000000 -0.000000 0.000000 2.030289 2.456199 -0.000000 0.000000 -0.000000 6.144203 10.187009 -3.793205 -2.070396 -26.655698 -3.944626 -65.604097 -21.523748 -62.211337 -98.556720 29.661490 -64.519108 -22.135409 4.696145 3.712754 2.421014 -1.395552 2.392361 0.699360 9.503608 -2.418265 3.496519 -2.018689 2.018707 5.975139 12.647554 1.348412 4.011404 -2.316007 2.315968 -23.873483 -17.664321 1.604758 2.095790 -1.210013 1.209972 0.000001 0.000001 0.000008 10.514767 -0.231376 2.264850 9.479727 -1.289701 -20.785575 0.709532 2.796678 -28.467084 0.714118 2.805001 -28.559640 2.334333 0.000015 0.000009 0.000001 -0.000001 0.000001 10.490764 -0.000000 0.000004 10.058190 -1.800541 -20.644771 1.774407 4.200745 -45.781911 1.632376 4.058121 -43.809223 2.752050 -0.000027 0.000023 -0.000002 0.000001 0.000004 10.240757 -0.046044 -2.314144 1.256481 -0.066820 -17.945537 3.744579 5.453249 -68.964249 5.298039 9.647980 -33.747531 -0.000000 0.000002 -0.000001 9.820255 -0.209729 -4.418462 -7.938307 1.609039 -6.495735 2.210704 4.583940 -51.475256 0.883917 3.096338 -31.858154 0.000000 0.000002 -0.000000 -6.140203 10.186991 -3.793192 -1.170483 -2.874451 -0.269846 -19.076826 31.183215 55.846301 30.755724 128.672814 -33.492929 3.500567 -5.540644 -11.802159 -9.791019 -0.212907 -4.378338 -17.635782 -10.496909 3.325330 4.994378 -4.645615 94.147806 3.647934 -4.547239 77.470560 0.000000 -0.000000 0.000000 -10.391919 0.105157 -2.349875 -12.155669 -12.624056 9.228123 6.567907 -4.249116 114.232387 3.754864 -4.569782 78.826954 0.000000 0.000001 -0.000002 -10.779237 0.000002 0.000012 3.764202 -12.080481 1.143758 5.715014 -4.536479 103.133411 3.160494 -4.411048 71.242083 -0.000000 0.000001 0.000000 -10.577332 -0.175384 2.287356 0.357850 -5.832776 5.175935 0.094430 -0.933737 11.539623 0.778310 -2.579683 33.567293 0.000000 0.000000 -0.000004 -2.570457 -1.245100 2.319062 13.942871 -4.273618 -5.299900 -3.518806 -2.031570 2.031575 7.113421 -20.767545 -2.619597 -3.945272 -2.277745 2.277753 -3.460564 -24.899427 -18.653902 -0.000001 0.000002 0.000001 9.633794 -3.273307 -0.000002 -28.463014 13.918675 16.128701 61.190353 -1.970275 -12.560218 -32.451332 -3.319150 11.170802 -0.183298 -12.185705 8.282300 -2.263765 -0.036419 -2.032619 0.000000 -0.000000 0.000000 -9.633805 -3.273322 -0.000002 -37.305660 -4.648435 0.855971 74.119314 1.170540 -6.113911 -24.324701 -1.300782 -10.946329 -0.183300 -12.185701 8.282302 3.309364 2.595242 3.618878 -0.000002 -0.000007 0.000001 
4.714230 85.019341 -8.737820 -2.935964 -35.700364 -5.041813 0.000011 9.226295 1.577101 19.024688 0.872866 2.182932 -0.000001 16.253984 -0.165601 11.734188 11.975553 0.680752 0.000002 13.639588 -1.292300 10.347300 13.477032 0.839504 0.000000 13.877386 -4.354199 -6.343424 -5.569226 5.098727 0.000000 4.339996 0.926907 -0.000002 0.000001 -0.000001 0.000004 4.026607 0.858505 -10.839959 7.210457 -3.814159 -0.000002 21.748825 0.000003 0.000000 -0.000000 -0.000001 3.005697 7.261780 7.955603 0.000000 -0.000000 -0.000001 -3.005705 7.261780 7.955606 0.000000 -0.000000 -0.000001 -0.000005 2.030273 2.456202 0.000000 -0.000000 -0.000001 6.144197 10.186993 -3.793201 -1.666043 -28.162596 -3.795146 -65.057538 -22.184699 -60.875871 -97.585747 27.868114 -66.299028 -24.162105 4.219512 5.036658 2.421024 -1.395550 2.392362 0.699360 9.503605 -2.418266 3.496527 -2.018675 2.018715 5.975134 12.647554 1.348408 4.011393 -2.315984 2.315973 -23.873487 -17.664312 1.604757 2.095776 -1.210029 1.210004 0.000006 0.000003 0.000001 10.514778 -0.231357 2.264855 9.479725 -1.289702 -20.785575 0.709530 2.796676 -28.467088 0.714118 2.805000 -28.559644 2.334350 0.000015 0.000012 -0.000002 0.000000 0.000000 10.490752 -0.000034 0.000003 10.058191 -1.800544 -20.644774 1.774409 4.200744 -45.781908 1.632378 4.058121 -43.809219 2.752058 -0.000045 0.000022 0.000001 0.000001 0.000001 10.240765 -0.046031 -2.314147 1.256482 -0.066819 -17.945533 3.744582 5.453247 -68.964249 5.298044 9.647979 -33.747534 -0.000002 -0.000001 -0.000001 9.820263 -0.209728 -4.418469 -7.938306 1.609038 -6.495736 2.210702 4.583938 -51.475256 0.883918 3.096339 -31.858154 0.000003 -0.000002 -0.000003 -6.140202 10.186975 -3.793194 -0.996350 -3.625470 -0.262752 -17.346802 32.585938 55.488040 29.490004 129.755166 -33.348747 4.233802 -5.143117 -13.081227 -9.791028 -0.212902 -4.378349 -17.635782 -10.496913 3.325328 4.994381 -4.645615 94.147806 3.647934 -4.547239 77.470553 -0.000000 0.000000 -0.000001 -10.391909 0.105153 -2.349898 -12.155673 -12.624058 9.228123 6.567908 -4.249117 114.232380 3.754866 -4.569784 78.826954 0.000000 -0.000001 -0.000001 -10.779228 0.000002 -0.000002 3.764202 -12.080483 1.143758 5.715014 -4.536479 103.133411 3.160494 -4.411049 71.242083 -0.000000 0.000000 0.000000 -10.577337 -0.175371 2.287347 0.357848 -5.832780 5.175934 0.094431 -0.933736 11.539626 0.778311 -2.579682 33.567293 0.000000 0.000000 -0.000001 -2.570453 -1.245102 2.319048 13.942873 -4.273621 -5.299901 -3.518812 -2.031540 2.031554 7.113420 -20.767545 -2.619602 -3.945276 -2.277732 2.277757 -3.460565 -24.899427 -18.653907 0.000001 0.000002 0.000001 9.633796 -3.273299 0.000000 -22.908666 13.950065 13.240670 58.541736 -2.427402 -13.684326 -34.850910 -4.195601 12.928156 -0.183301 -12.185708 8.282299 -2.264061 -0.036640 -2.032705 0.000000 -0.000000 -0.000000 -9.633805 -3.273308 -0.000000 -41.236724 -5.262289 4.179820 69.474546 1.238508 -3.532701 -25.944291 -2.090648 -7.189433 -0.183302 -12.185699 8.282300 4.789389 0.900447 3.380476 0.000000 0.000003 -0.000000 
4.706841 84.823700 -9.643538 -3.188853 -33.838605 -5.083070 0.000012 9.226293 1.577101 20.161025 0.122700 2.863847 0.000001 16.253988 -0.165607 11.176966 11.898140 0.135625 -0.000004 13.639591 -1.292300 9.943488 13.280691 0.188562 -0.000004 13.877417 -4.354205 -6.221476 -5.829429 5.083394 -0.000000 4.340012 0.926894 0.000000 -0.000001 0.000000 -0.000000 4.026623 0.858511 -10.828411 6.472303 -3.103568 -0.000002 21.748810 0.000007 -0.000000 0.000001 -0.000001 3.005703 7.261795 7.955604 -0.000000 0.000001 -0.000001 -3.005699 7.261795 7.955606 -0.000000 0.000001 -0.000001 0.000003 2.030304 2.456201 -0.000000 0.000001 -0.000001 6.144196 10.187010 -3.793208 -1.259855 -29.578493 -3.621143 -64.638902 -22.352276 -59.539326 -97.320073 28.500493 -67.037856 -23.588258 3.927018 5.941443 2.421013 -1.395556 2.392357 0.699360 9.503605 -2.418265 3.496505 -2.018675 2.018715 5.975136 12.647551 1.348405 4.011402 -2.315999 2.315975 -23.873487 -17.664314 1.604760 2.095786 -1.210025 1.209988 -0.000001 -0.000001 0.000004 10.514771 -0.231392 2.264847 9.479724 -1.289701 -20.785572 0.709532 2.796672 -28.467088 0.714117 2.805001 -28.559640 2.334334 0.000014 0.000006 0.000001 0.000000 0.000001 10.490764 -0.000050 -0.000000 10.058190 -1.800543 -20.644771 1.774409 4.200744 -45.781911 1.632382 4.058121 -43.809219 2.752046 -0.000045 0.000026 -0.000005 -0.000001 -0.000000 10.240765 -0.046062 -2.314151 1.256479 -0.066823 -17.945533 3.744579 5.453250 -68.964256 5.298043 9.647979 -33.747538 -0.000001 -0.000003 -0.000004 9.820254 -0.209744 -4.418470 -7.938311 1.609041 -6.495736 2.210701 4.583938 -51.475260 0.883917 3.096340 -31.858157 -0.000001 0.000000 0.000000 -6.140204 10.186986 -3.793201 -0.809673 -4.420705 -0.250743 -15.693353 33.701345 54.950211 28.352885 130.057047 -32.908514 4.119321 -4.054987 -14.598577 -9.791031 -0.212900 -4.378344 -17.635782 -10.496909 3.325328 4.994381 -4.645615 94.147806 3.647934 -4.547239 77.470560 0.000001 -0.000000 -0.000000 -10.391919 0.105153 -2.349896 -12.155671 -12.624053 9.228123 6.567908 -4.249117 114.232380 3.754865 -4.569785 78.826954 -0.000001 0.000000 -0.000001 -10.779242 0.000003 -0.000005 3.764202 -12.080480 1.143757 5.715014 -4.536479 103.133411 3.160494 -4.411049 71.242083 0.000000 -0.000001 -0.000000 -10.577332 -0.175370 2.287340 0.357849 -5.832778 5.175935 0.094430 -0.933737 11.539625 0.778311 -2.579683 33.567293 -0.000000 -0.000001 -0.000002 -2.570457 -1.245109 2.319043 13.942872 -4.273618 -5.299899 -3.518816 -2.031569 2.031561 7.113418 -20.767545 -2.619597 -3.945283 -2.277770 2.277757 -3.460562 -24.899429 -18.653901 0.000000 0.000003 -0.000000 9.633797 -3.273311 0.000002 -17.578761 14.256165 10.705161 56.279922 -3.586955 -14.393191 -37.514438 -4.998665 14.849221 -0.183301 -12.185707 8.282302 -2.264418 -0.036876 -2.032824 0.000000 0.000000 0.000000 -9.633805 -3.273298 0.000003 -44.861550 -5.917089 6.214781 64.389266 1.909073 -1.019285 -25.694815 -2.282002 -1.034366 -0.183300 -12.185701 8.282301 4.663813 -1.345322 2.242921 -0.000000 -0.000004 -0.000000 
